<svg width="34" height="22" viewBox="0 0 34 22" fill="none" xmlns="http://www.w3.org/2000/svg">
<path fill-rule="evenodd" clip-rule="evenodd" d="M7 1H27V11.7967V14.72V21H7V10.8222V9.43V1Z" fill="#016FD0"/>
<path fill-rule="evenodd" clip-rule="evenodd" d="M10.8822 14.9367V11.7967H14.2067L14.5633 12.2611L14.9322 11.7967H27V14.72C26.7962 14.8521 26.5614 14.9287 26.3189 14.9422H19.6378L19.2356 14.4444V14.94H17.9178V14.0956C17.7416 14.1848 17.5449 14.2254 17.3478 14.2133H16.9033V14.94H14.9033L14.5467 14.4644L14.1856 14.94L10.8822 14.9367Z" fill="white"/>
<path fill-rule="evenodd" clip-rule="evenodd" d="M7 9.43L7.75 7.68222H9.04667L9.47222 8.66667V7.68222H11.0833L11.3333 8.39L11.5789 7.68222H18.8144V8.03778C19.0958 7.80569 19.4497 7.67985 19.8144 7.68222L22.1611 7.69L22.58 8.65667V7.68222H23.9289L24.3 8.23778V7.68222H25.6667V10.8222H24.3089L23.9533 10.2667V10.8222H21.9711L21.7778 10.3267H21.2444L21.0489 10.8222H19.7044C19.3778 10.8185 19.064 10.6942 18.8233 10.4733V10.8222H16.7911L16.3889 10.3267V10.8222H8.85444L8.65556 10.3267H8.12444L7.92667 10.8222H7V9.43Z" fill="white"/>
<path fill-rule="evenodd" clip-rule="evenodd" d="M8.01556 8.06889L7 10.42H7.66667L7.85333 9.95H8.93333L9.11889 10.42H9.79222L8.77778 8.06889H8.01556ZM8.38889 8.61667L8.72222 9.43889H8.05556L8.38889 8.61667Z" fill="#016FD0"/>
<path fill-rule="evenodd" clip-rule="evenodd" d="M9.86111 10.42V8.06889L10.7967 8.07223L11.3411 9.58778L11.8722 8.06889H12.8V10.42H12.2122V8.68778L11.59 10.42H11.0744L10.4489 8.68778V10.42H9.86111Z" fill="#016FD0"/>
<path fill-rule="evenodd" clip-rule="evenodd" d="M13.2022 10.42V8.06889H15.1211V8.59445H13.7967V8.99667H15.09V9.49222H13.7967V9.91H15.1211V10.42H13.2022Z" fill="#016FD0"/>
<path fill-rule="evenodd" clip-rule="evenodd" d="M15.4611 8.06889V10.42H16.0489V9.58556H16.2967L17 10.42H17.7178L16.94 9.55445C17.1184 9.53666 17.2837 9.45262 17.4033 9.31892C17.5228 9.18521 17.5878 9.01155 17.5855 8.83222C17.5855 8.33778 17.1967 8.06889 16.7633 8.06889H15.4611ZM16.0489 8.59556H16.7155C16.7858 8.59126 16.855 8.61468 16.9081 8.6608C16.9613 8.70692 16.9943 8.77206 17 8.84223C16.9954 8.9103 16.9648 8.97402 16.9146 9.02015C16.8643 9.06628 16.7982 9.0913 16.73 9.09H16.0489V8.59556Z" fill="#016FD0"/>
<path fill-rule="evenodd" clip-rule="evenodd" d="M18.4311 10.42H17.8311V8.06889H18.4311V10.42Z" fill="#016FD0"/>
<path fill-rule="evenodd" clip-rule="evenodd" d="M19.8533 10.42H19.7244C19.0978 10.42 18.7167 9.92667 18.7167 9.25445C18.7167 8.56556 19.0933 8.06889 19.8844 8.06889H20.5344V8.62445H19.8611C19.54 8.62445 19.3122 8.87556 19.3122 9.25889C19.3122 9.71445 19.5722 9.90556 19.9467 9.90556H20.1011L19.8533 10.4189V10.42Z" fill="#016FD0"/>
<path fill-rule="evenodd" clip-rule="evenodd" d="M21.1333 8.06889L20.1211 10.42H20.7778L20.9645 9.95H22.0489L22.2344 10.42H22.9078L21.9 8.06889H21.1333ZM21.5067 8.61667L21.84 9.43889H21.1733L21.5067 8.61667Z" fill="#016FD0"/>
<path fill-rule="evenodd" clip-rule="evenodd" d="M22.9789 10.42V8.06889H23.7256L24.68 9.54556V8.06889H25.2678V10.42H24.5444L23.5656 8.90445V10.42H22.9789Z" fill="#016FD0"/>
<path fill-rule="evenodd" clip-rule="evenodd" d="M11.2844 14.5345V12.1833H13.2022V12.7089H11.8789V13.1111H13.1722V13.6067H11.8789V14.0245H13.2022V14.5345H11.2844Z" fill="#016FD0"/>
<path fill-rule="evenodd" clip-rule="evenodd" d="M20.6833 14.5345V12.1833H22.6011V12.7089H21.2767V13.1111H22.5633V13.6067H21.2767V14.0245H22.6011V14.5345H20.6833Z" fill="#016FD0"/>
<path fill-rule="evenodd" clip-rule="evenodd" d="M13.2767 14.5345L14.2111 13.3733L13.2544 12.1833H13.9956L14.5644 12.9189L15.1356 12.1833H15.8478L14.9044 13.3589L15.84 14.5345H15.0989L14.5467 13.81L14.0067 14.5345H13.2767Z" fill="#016FD0"/>
<path fill-rule="evenodd" clip-rule="evenodd" d="M15.91 12.1833V14.5345H16.5133V13.7922H17.1311C17.6556 13.7922 18.0522 13.5145 18.0522 12.9745C18.0522 12.53 17.7411 12.1833 17.2078 12.1833H15.91ZM16.5133 12.7156H17.1644C17.2018 12.7121 17.2394 12.7166 17.2749 12.7287C17.3104 12.7409 17.3429 12.7604 17.3703 12.786C17.3977 12.8116 17.4194 12.8427 17.4339 12.8773C17.4484 12.9119 17.4554 12.9492 17.4544 12.9867C17.4544 13.024 17.4466 13.061 17.4317 13.0952C17.4167 13.1294 17.3948 13.1602 17.3673 13.1855C17.3399 13.2109 17.3075 13.2303 17.2722 13.2425C17.2369 13.2548 17.1995 13.2596 17.1622 13.2567H16.5133V12.7156Z" fill="#016FD0"/>
<path fill-rule="evenodd" clip-rule="evenodd" d="M18.3067 12.1833V14.5345H18.8944V13.6989H19.1422L19.8467 14.5345H20.5656L19.7878 13.6678C19.9661 13.65 20.1313 13.5659 20.2507 13.4322C20.37 13.2984 20.4348 13.1248 20.4322 12.9456C20.4322 12.4511 20.0444 12.1833 19.6111 12.1833H18.3067ZM18.8944 12.7089H19.5611C19.6305 12.7067 19.6981 12.7311 19.75 12.7772C19.8018 12.8233 19.8341 12.8875 19.84 12.9567C19.8354 13.0248 19.8049 13.0885 19.7546 13.1346C19.7043 13.1807 19.6382 13.2058 19.57 13.2045H18.8889V12.7089H18.8944Z" fill="#016FD0"/>
<path fill-rule="evenodd" clip-rule="evenodd" d="M22.8733 14.5345V14.0245H24.05C24.2233 14.0245 24.2989 13.93 24.2989 13.8267C24.2989 13.7233 24.2233 13.6278 24.05 13.6278H23.5178C23.0556 13.6278 22.7989 13.3467 22.7989 12.9233C22.7989 12.5467 23.0344 12.1833 23.7211 12.1833H24.8656L24.6178 12.7122H23.6278C23.4389 12.7122 23.38 12.8111 23.38 12.9067C23.3799 12.9351 23.3857 12.9632 23.3971 12.9893C23.4084 13.0153 23.4251 13.0387 23.446 13.0579C23.4669 13.0771 23.4916 13.0918 23.5185 13.101C23.5454 13.1101 23.5739 13.1136 23.6022 13.1111H24.1578C24.6722 13.1111 24.8956 13.4033 24.8956 13.7867C24.8956 14.1978 24.6467 14.5345 24.1289 14.5345H22.8733Z" fill="#016FD0"/>
<path fill-rule="evenodd" clip-rule="evenodd" d="M25.03 14.5345V14.0245H26.1567C26.3311 14.0245 26.4067 13.93 26.4067 13.8267C26.4067 13.7233 26.3311 13.6278 26.1567 13.6278H25.6756C25.2133 13.6278 24.9556 13.3467 24.9556 12.9233C24.9556 12.5467 25.1911 12.1833 25.8778 12.1833H27L26.7522 12.7122H25.7856C25.5956 12.7122 25.5378 12.8111 25.5378 12.9067C25.5377 12.9346 25.5434 12.9622 25.5544 12.9878C25.5655 13.0135 25.5816 13.0366 25.6019 13.0557C25.6222 13.0749 25.6462 13.0897 25.6725 13.0992C25.6987 13.1087 25.7266 13.1128 25.7544 13.1111H26.2611C26.7767 13.1111 27 13.4033 27 13.7867C27 14.1978 26.7511 14.5345 26.2333 14.5345H25.03Z" fill="#016FD0"/>
</svg>
