<svg width="34" height="22" viewBox="0 0 34 22" fill="none" xmlns="http://www.w3.org/2000/svg">
<path fill-rule="evenodd" clip-rule="evenodd" d="M4 3H30.971L31 11.4858C27.744 10.2356 17.3845 7.24342 4 10.9721V3Z" fill="#2C328C"/>
<path fill-rule="evenodd" clip-rule="evenodd" d="M4 21H30.971V14.2112C26.1067 12.5676 17.4601 10.1048 4 13.5939V21Z" fill="#FFF200"/>
<path fill-rule="evenodd" clip-rule="evenodd" d="M30.971 14.2112C26.1067 12.5676 17.4601 10.1048 4 13.5939V10.9721C17.3845 7.24342 27.744 10.2398 31 11.4858L30.971 14.2112Z" fill="#ED1C24"/>
<path fill-rule="evenodd" clip-rule="evenodd" d="M12.5917 9.3735C13.2591 7.51125 14.7865 5.90323 17.4394 5.92101C20.0922 5.9388 21.8643 7.4694 22.342 9.47184C18.9223 9.11299 16.6425 9.05022 12.5917 9.3735Z" fill="#FFF200"/>
<path d="M10.0259 17.5611L11.8321 14.841H12.4974L14.4228 17.5611H13.7171L13.1689 16.7388H11.2L10.6819 17.5611H10.0259ZM11.3824 16.4459H12.9772L12.486 15.6936C12.3642 15.5122 12.2528 15.324 12.1523 15.1297C12.0889 15.3138 12.0037 15.4895 11.8984 15.6528L11.3803 16.4501L11.3824 16.4459ZM17.5855 17.5611V17.2724C17.3195 17.4956 16.9589 17.6068 16.5036 17.6061C16.3141 17.6071 16.1251 17.5846 15.9409 17.5392C15.8018 17.5106 15.6699 17.4536 15.5534 17.3718C15.4711 17.3086 15.4092 17.2223 15.3751 17.1238C15.3472 17.0217 15.3353 16.9158 15.3399 16.81V15.5932H15.9171V16.6844C15.9103 16.8031 15.9222 16.9221 15.9523 17.037C15.9752 17.0854 16.0073 17.1288 16.0467 17.1647C16.0862 17.2006 16.1323 17.2283 16.1824 17.2462C16.322 17.2993 16.4705 17.3245 16.6197 17.3205C16.7851 17.3218 16.9496 17.296 17.1067 17.2441C17.2331 17.2098 17.3457 17.1367 17.429 17.0349C17.4994 16.9196 17.5327 16.7851 17.5244 16.6499V15.5932H18.1005V17.5611H17.5855ZM19.5026 17.5611V15.5932H20.0207V15.8914C20.1233 15.7744 20.2489 15.6803 20.3896 15.6152C20.5077 15.5697 20.6332 15.5469 20.7596 15.5482C20.9616 15.549 21.1621 15.5843 21.3523 15.6528L21.1534 15.9667C21.0173 15.9193 20.8745 15.8949 20.7306 15.8945C20.614 15.8926 20.4983 15.9151 20.3907 15.9604C20.3008 15.9947 20.2251 16.0589 20.1762 16.1425C20.1112 16.2616 20.078 16.3957 20.0798 16.5317V17.5622L19.5026 17.5611ZM24.4218 17.3184C24.2238 17.4169 24.0151 17.4917 23.8 17.5412C23.5904 17.5855 23.3768 17.6072 23.1627 17.6061C22.7876 17.6061 22.5016 17.5528 22.2995 17.4471C22.0974 17.3414 21.999 17.2065 21.999 17.0422C21.9995 16.9928 22.0099 16.944 22.0295 16.8987C22.0491 16.8534 22.0775 16.8126 22.113 16.7786C22.1968 16.693 22.2983 16.6272 22.4104 16.5861C22.5446 16.5368 22.6835 16.5017 22.8249 16.4814C22.9378 16.4647 23.1088 16.4469 23.3378 16.4312C23.6831 16.4133 24.0271 16.3749 24.3679 16.3161C24.3679 16.2712 24.3679 16.2419 24.3679 16.2293C24.3725 16.1704 24.3594 16.1115 24.3301 16.0603C24.3009 16.0091 24.257 15.9681 24.2042 15.9426C23.9964 15.8554 23.7718 15.8168 23.5472 15.8297C23.3432 15.8195 23.1392 15.8472 22.9451 15.9113C22.8154 15.9671 22.7124 16.0718 22.658 16.2031L22.0943 16.1592C22.1427 16.0233 22.2308 15.9054 22.3472 15.8213C22.5015 15.7198 22.6752 15.6521 22.857 15.6225C23.1117 15.5731 23.3707 15.5496 23.6301 15.5524C23.8677 15.5482 24.1052 15.5682 24.3389 15.612C24.4809 15.6363 24.6173 15.687 24.7409 15.7617C24.8223 15.817 24.8849 15.8962 24.9202 15.9887C24.9436 16.0894 24.953 16.1929 24.9482 16.2963V16.7409C24.9392 16.9377 24.9517 17.1349 24.9855 17.3289C25.0142 17.4186 25.0644 17.4998 25.1316 17.5653H24.5285C24.4682 17.497 24.4283 17.4129 24.4135 17.3226L24.4218 17.3184ZM24.3731 16.5735C24.0619 16.6371 23.7469 16.6794 23.4301 16.7001C23.2608 16.71 23.0925 16.732 22.9264 16.766C22.8435 16.7817 22.7656 16.8176 22.6995 16.8706C22.6754 16.8894 22.6556 16.9132 22.6416 16.9405C22.6277 16.9678 22.6198 16.9979 22.6187 17.0286C22.6187 17.1186 22.6777 17.1918 22.7938 17.2514C22.9554 17.3191 23.1299 17.3495 23.3047 17.3404C23.5058 17.3435 23.7061 17.3149 23.8985 17.2556C24.0445 17.2167 24.1767 17.1369 24.2798 17.0255C24.3488 16.9288 24.3819 16.8106 24.3731 16.6917V16.5735Z" fill="#2C328C" stroke="#2C328C" stroke-width="0.22" stroke-miterlimit="22.93"/>
</svg>
