<svg width="34" height="22" viewBox="0 0 34 22" fill="none" xmlns="http://www.w3.org/2000/svg">
<path fill-rule="evenodd" clip-rule="evenodd" d="M2.05052 3C2.04117 3.97175 2.00374 4.9435 2 5.91525C2 7.07178 2.02152 8.34838 2.27039 9.47958C3.65039 15.7706 8.70915 19.516 14.9786 20H32.2001V8.18517C32.2001 5.45376 29.5561 3.04878 26.8812 3.04878C18.6049 3.04878 10.3277 3.00188 2.05052 3Z" fill="url(#paint0_radial)"/>
<path fill-rule="evenodd" clip-rule="evenodd" d="M2.41727 3.37144C2.40043 4.22032 2.37424 5.06826 2.37143 5.91619C2.36769 7.05959 2.3864 8.27897 2.63246 9.40455C3.97597 15.5268 8.89439 19.1596 14.9926 19.6286H31.8333V8.18517C31.8333 5.65731 29.354 3.42022 26.8859 3.42022C18.7266 3.42022 10.5719 3.37426 2.41727 3.37144Z" fill="#BCD631"/>
<path fill-rule="evenodd" clip-rule="evenodd" d="M5.4879 10.0611V10.1277C6.30187 10.1362 7.11958 10.1277 7.93354 10.1277C8.74751 10.1277 9.44359 10.1793 10.1051 9.8257C10.3818 9.6877 10.6196 9.48245 10.7969 9.22867C10.9742 8.97489 11.0854 8.68064 11.1202 8.37277C11.1788 8.02384 11.1125 7.66538 10.9331 7.36068C10.7506 7.07929 10.5878 6.98549 10.2257 6.83635C10.3333 6.77632 10.8535 6.75287 11.1679 6.1882C11.2789 5.97993 11.3476 5.75171 11.3703 5.51669C11.3929 5.28166 11.369 5.04446 11.2998 4.81875C11.0079 3.87045 9.83467 3.93423 8.9496 3.93423C8.22545 3.93423 7.49943 3.93892 6.77528 3.93423C6.70417 4.41542 6.55822 4.97821 6.45718 5.46502L5.81349 8.53691C5.76858 8.77328 5.54778 9.94389 5.4879 10.0611ZM7.01666 9.06594L7.37874 7.37757C7.65941 7.36256 7.96535 7.37757 8.2479 7.37757C8.67828 7.37757 9.39307 7.30816 9.65878 7.66647C9.9011 7.99101 9.8459 9.05937 8.73628 9.07344C8.16651 9.07907 7.59205 9.07344 7.01666 9.07344V9.06594ZM7.57147 6.43958L7.80256 5.32995C7.82501 5.22396 7.84186 5.0176 7.90735 4.99978C8.38076 4.99978 8.95708 4.96976 9.41833 5.00541C9.63913 5.02323 9.83186 5.09921 9.92262 5.24928C10.1369 5.59634 10.0611 6.44521 9.05532 6.44427C8.59407 6.44427 8.01962 6.47429 7.57147 6.44427V6.43958ZM12.6143 10.2487C12.4431 10.1681 12.0006 10.169 11.7077 9.80694C11.1136 9.07344 11.4271 7.83718 12.9904 7.56422C13.4405 7.48731 14.449 7.47793 14.7007 7.25469C15.0525 6.94234 14.8148 6.21822 13.8764 6.36454C13.4751 6.42645 13.2533 6.63656 13.1663 7.00988H12.0183C12.1465 5.30181 14.6661 5.28962 15.5334 5.82427C16.2079 6.23979 15.9834 7.05865 15.8141 7.85594C15.7345 8.22363 15.6559 8.58569 15.5717 8.95713C15.4782 9.37922 15.3996 9.68031 15.4838 10.1287H14.2497V9.71314C14.0729 9.81632 14.0327 9.99454 13.4797 10.1662C13.374 10.2 13.2253 10.2084 13.1326 10.2497L12.6143 10.2487ZM13.3291 9.42143C14.1964 9.42143 14.42 8.78266 14.5987 7.99382C14.2245 8.12889 14.2535 8.1439 13.7978 8.18142C13.5059 8.20487 13.1991 8.22456 12.9708 8.35588C12.4908 8.62977 12.5311 9.42237 13.3291 9.42237V9.42143ZM22.9891 10.2487H23.6553C23.7572 10.2046 24.0295 10.2093 24.3654 10.0799C24.5663 10.0055 24.7527 9.89662 24.9165 9.75817C25.072 9.62095 25.2083 9.46317 25.3216 9.28918C25.3899 9.18037 25.5826 8.83988 25.6022 8.70669L24.3906 8.70106C24.2129 8.89616 24.2381 8.98902 23.9678 9.17005C23.3493 9.57901 22.2837 9.18412 22.497 8.18986L25.7903 8.18517C25.8605 7.64114 25.9138 7.17778 25.7229 6.67033C25.17 5.20238 23.0977 5.30556 22.2846 6.04844C21.6044 6.66939 21.2508 7.48262 21.3135 8.4872C21.3352 8.93585 21.5076 9.36394 21.8028 9.70189C21.9503 9.84512 22.1208 9.96244 22.3071 10.0489C22.6158 10.2 22.8638 10.184 22.9919 10.2431L22.9891 10.2487ZM22.6327 7.40195C22.6495 7.21436 22.9031 6.86543 22.9882 6.78101C23.1704 6.60874 23.4022 6.49845 23.6506 6.46585C23.9621 6.42458 24.2662 6.48273 24.4393 6.65344C24.5275 6.75527 24.5923 6.87521 24.6293 7.00484C24.6664 7.13447 24.6746 7.27066 24.6535 7.40383H22.6327V7.40195ZM18.0735 6.26137L18.2064 5.64417H17.0238L16.0938 10.124L17.3288 10.1296C17.3859 9.73003 17.6656 8.49846 17.7657 8.02759C17.9023 7.38788 18.0857 6.6919 18.8201 6.52682C19.1944 6.44146 19.6144 6.58497 19.6565 6.91045C19.6865 7.13744 19.5321 7.75464 19.4816 7.99851C19.3338 8.70294 19.1625 9.42706 19.0409 10.1315H20.2572C20.3049 10.0377 20.5996 8.54442 20.6511 8.30523C20.7596 7.80716 21.0253 6.86168 20.913 6.3758C20.6857 5.36465 19.3646 5.38154 18.6845 5.75673C18.4805 5.87073 18.2966 6.01743 18.1399 6.19102C18.0997 6.23323 18.1194 6.2276 18.0698 6.26418L18.0735 6.26137ZM27.4323 10.2487C27.3181 10.2 26.9691 10.1653 26.7895 10.0987C26.1299 9.85478 25.8352 9.46552 25.8399 8.67761L26.9869 8.66729C26.9869 8.98621 27.0402 9.12597 27.2451 9.25822C27.6044 9.4899 28.3323 9.49928 28.5634 9.15129C28.7084 8.93274 28.6429 8.63259 28.4698 8.51815C28.2603 8.37277 27.4949 8.17485 27.1937 8.07261C26.7352 7.91691 26.3891 7.71618 26.3077 7.21436C26.1271 6.10191 27.0683 5.59258 28.0666 5.52599C28.5737 5.49316 29.1276 5.55319 29.5205 5.77831C29.8947 5.99404 30.0894 6.3486 30.1034 6.94891H28.9975C28.8909 6.91889 29.0181 6.74349 28.7982 6.52025C28.4951 6.21353 27.48 6.27919 27.5211 6.81102C27.5679 7.42728 29.4616 7.23687 29.8134 8.32587C29.9182 8.67924 29.882 9.05964 29.7123 9.38673C29.4719 9.80788 29.0574 10.0311 28.584 10.1521C28.4483 10.1868 28.1293 10.2168 28.0441 10.2459L27.4323 10.2487Z" fill="#192F60"/>
<path fill-rule="evenodd" clip-rule="evenodd" d="M6.77528 14.8852C6.92217 14.8186 7.07841 14.7745 7.22904 14.7201L10.3006 13.6095C10.6945 13.4679 10.9789 13.3656 11.3803 13.5795C11.5316 13.6618 11.6601 13.7804 11.7545 13.9247C11.8067 14.0141 11.8503 14.1083 11.8846 14.2061C11.9379 14.3449 11.9875 14.4875 12.0361 14.6254C12.1119 14.8448 12.1839 15.0653 12.2588 15.2819L12.604 16.3025L12.4983 16.3747C12.4389 16.4085 12.3762 16.4361 12.3112 16.4572C12.2176 16.491 12.1334 16.5229 12.0436 16.551C11.9117 16.5979 11.7779 16.6448 11.645 16.6899L10.0274 17.2836C9.44118 17.505 8.79151 17.4859 8.2193 17.2302C7.6471 16.9745 7.1985 16.503 6.97082 15.9179L6.63774 14.9499L6.77528 14.8852Z" fill="#CBCACA"/>
<path fill-rule="evenodd" clip-rule="evenodd" d="M6.84451 15.0381L7.12519 15.8579C7.57708 16.9703 8.79523 17.5697 9.96846 17.1298L11.5945 16.5426C11.7283 16.4938 12.3365 16.2893 12.4066 16.2415L12.1016 15.342C12.0296 15.1291 11.719 14.1695 11.6179 14.0185C11.5372 13.8969 11.428 13.797 11.2998 13.7277C10.9462 13.5401 10.6926 13.6461 10.3558 13.768L7.28611 14.8777C7.14484 14.9293 6.97737 14.978 6.84451 15.0381Z" fill="#1A3F77"/>
<path fill-rule="evenodd" clip-rule="evenodd" d="M5.44673 11.7983L8.25352 10.8021C8.33117 10.7749 8.40789 10.744 8.48648 10.7177C8.67838 10.6403 8.89134 10.633 9.08807 10.6971C9.37997 10.8003 9.51095 10.9991 9.60451 11.2805L10.367 13.3966L6.51705 14.7614L5.44673 11.7983Z" fill="#CBCACA"/>
<path fill-rule="evenodd" clip-rule="evenodd" d="M5.66192 11.8996L6.61623 14.5475L10.1537 13.2925L9.4492 11.334C9.37342 11.1136 9.27893 10.9419 9.03474 10.8547C8.77371 10.7609 8.53887 10.8819 8.31246 10.9607L5.66192 11.8996Z" fill="#85B844"/>
<path fill-rule="evenodd" clip-rule="evenodd" d="M26.4536 17.4374H26.9055C27.0346 17.383 27.261 17.4037 27.5726 17.2132C27.8842 17.0228 27.9852 16.7865 28.0404 16.764L27.9234 17.3164L29.1135 17.3108C29.1472 17.0669 29.2239 16.7715 29.2735 16.5332L30.08 12.7128C30.1389 12.4417 30.3289 11.3593 30.4121 11.2036V11.122H29.1828L28.6906 13.4229C28.6532 13.3806 28.6027 13.27 28.5662 13.2174C28.2004 12.6959 27.4145 12.6312 26.8335 12.7794C26.1215 12.9614 25.6584 13.436 25.3721 13.9791C25.0746 14.5419 24.8809 15.4864 25.0465 16.2115C25.1167 16.5344 25.2859 16.8272 25.5302 17.0491C25.998 17.4309 26.1851 17.3305 26.4583 17.4374H26.4536ZM27.3892 13.6564C29.0312 13.4013 28.525 16.2565 27.2732 16.4901C25.6827 16.7883 26.0186 13.8693 27.3892 13.6564ZM18.2447 17.4374H18.7294C18.8435 17.4035 18.9594 17.3756 19.0765 17.3539C19.6294 17.1842 19.7211 16.9562 19.8483 16.8981V17.3164H21.0749C20.8953 16.5069 21.5895 14.8167 21.5885 13.8806C21.5885 12.5674 19.635 12.6087 18.8847 12.8113C18.2251 12.9895 17.6534 13.4679 17.6141 14.2004L18.7574 14.1929C18.8613 13.9275 18.8248 13.9397 19.0026 13.7633C19.3338 13.4341 20.2768 13.4482 20.4228 13.9369C20.6688 14.7614 19.3412 14.6235 18.5722 14.7576C17.8031 14.8917 17.195 15.2557 17.0575 15.9695C16.9368 16.5942 17.2053 17.0716 17.7273 17.3014C17.8948 17.3746 18.1259 17.3952 18.2457 17.4402L18.2447 17.4374ZM18.9053 16.6101C18.1035 16.6101 18.1063 15.7997 18.5656 15.5408C18.7939 15.4123 19.1045 15.3907 19.3936 15.3682C19.9934 15.3223 19.8773 15.266 20.1926 15.1806C19.9952 15.9123 19.8465 16.6054 18.9053 16.6054V16.6101ZM14.376 17.4374C14.2451 17.3924 14.0542 17.4224 13.7211 17.2977C13.1429 17.0847 12.7855 16.6495 12.6789 15.9798C12.4656 14.6891 13.0475 13.3234 14.2694 12.8619C15.3313 12.4614 17.2156 12.7822 17.1697 14.389H15.9441C15.9207 14.0466 15.8281 13.8309 15.5699 13.7211C15.2871 13.6138 14.9737 13.6209 14.696 13.7408C14.2675 13.9425 14.0121 14.4612 13.9157 15.0493C13.6416 16.7152 14.8382 16.6814 15.3191 16.3034C15.5147 16.1486 15.5876 15.9742 15.7196 15.6806H16.9358C16.9078 15.9367 16.6149 16.4103 16.4503 16.6242C16.2339 16.8915 15.958 17.1041 15.6447 17.2451C15.2705 17.4149 15.0487 17.3811 14.9047 17.4402L14.376 17.4374ZM23.6197 13.6377C23.7067 13.5851 24.0454 12.5515 25.5424 12.7353C25.4842 13.1383 25.4004 13.5371 25.2916 13.9294C25.0399 13.9078 24.908 13.8356 24.6217 13.8656C24.0164 13.9228 23.6712 14.2971 23.4607 14.8974C23.3577 15.1881 22.9816 16.9666 22.9302 17.3164H21.6896L22.6252 12.8329L23.7891 12.8404L23.6197 13.6377Z" fill="#192F60"/>
<defs>
<radialGradient id="paint0_radial" cx="0" cy="0" r="1" gradientUnits="userSpaceOnUse" gradientTransform="translate(17.0996 11.5009) scale(14.0442 14.0801)">
<stop stop-color="#E6E7E8"/>
<stop offset="1" stop-color="white"/>
</radialGradient>
</defs>
</svg>
