<?xml version="1.0" encoding="utf-8"?>
<!-- Generator: Adobe Illustrator 26.2.1, SVG Export Plug-In . SVG Version: 6.00 Build 0)  -->
<svg width="32" height="22" version="1.1" id="Camada_1" xmlns="http://www.w3.org/2000/svg" xmlns:xlink="http://www.w3.org/1999/xlink" x="0px" y="0px"
	 viewBox="0 0 32 22" style="enable-background:new 0 0 32 22;" xml:space="preserve">
<style type="text/css">
	.st0{fill-rule:evenodd;clip-rule:evenodd;fill:#003D7C;}
	.st1{fill-rule:evenodd;clip-rule:evenodd;fill:#FFFFFF;}
</style>
<g id="a">
</g>
<g id="b">
	<g id="c">
		<g>
			<polygon class="st0" points="27,22 27,0 5,0 5,22 27,22 			"/>
			<polygon class="st1" points="19.3,8.9 16.3,11.9 16.3,14.6 22.1,8.9 16.3,3.1 16.3,5.9 19.3,8.9 			"/>
			<polygon class="st1" points="12.7,8.9 15.7,5.9 15.7,3.1 9.9,8.9 15.7,14.6 15.7,11.9 12.7,8.9 			"/>
			<path class="st1" d="M11.3,15.7L11.3,15.7l-0.2,1.1H11c0-0.3-0.1-0.5-0.2-0.7c-0.1-0.1-0.3-0.2-0.5-0.2c-0.2,0-0.5,0.1-0.7,0.3
				c-0.2,0.2-0.4,0.5-0.6,0.9c-0.1,0.3-0.2,0.6-0.2,1c0,0.3,0.1,0.5,0.2,0.7c0.1,0.2,0.3,0.2,0.6,0.2c0.2,0,0.4,0,0.5-0.1
				c0.2-0.1,0.3-0.2,0.5-0.4h0.1c-0.2,0.3-0.4,0.5-0.6,0.6c-0.2,0.1-0.5,0.2-0.8,0.2c-0.4,0-0.7-0.1-1-0.4c-0.2-0.2-0.4-0.6-0.4-1
				c0-0.4,0.1-0.7,0.3-1.1c0.2-0.3,0.5-0.6,0.9-0.8c0.4-0.2,0.7-0.3,1.1-0.3c0.1,0,0.3,0,0.5,0.1c0.1,0,0.2,0,0.2,0
				C11.1,15.8,11.2,15.8,11.3,15.7L11.3,15.7L11.3,15.7z"/>
			<path class="st1" d="M13.2,16.7l-0.1,1.1h-0.9L13.2,16.7L13.2,16.7z M13.1,18.9C13,18.9,13,19,13,19c0,0-0.1,0-0.3,0l0,0.1h1.5
				l0-0.1c-0.1,0-0.2,0-0.2-0.1c0-0.1-0.1-0.1-0.1-0.2c0,0,0-0.1,0-0.3l0.1-2.8h-0.1l-2.4,2.9c-0.2,0.2-0.3,0.3-0.4,0.4
				C11,19,10.9,19,10.8,19l0,0.1h1V19c-0.1,0-0.2,0-0.2-0.1c0,0-0.1-0.1-0.1-0.1s0-0.1,0-0.1c0,0,0.1-0.1,0.1-0.2l0.2-0.3l0.2-0.3h1
				l0,0.4C13.1,18.7,13.1,18.8,13.1,18.9L13.1,18.9L13.1,18.9z"/>
			<path class="st1" d="M16.6,15.9c0.1,0,0.2,0,0.3,0.1c0.1,0.1,0.1,0.2,0.1,0.3c0,0.1,0,0.3-0.1,0.4c-0.1,0.2-0.2,0.3-0.3,0.3
				c-0.1,0.1-0.3,0.1-0.5,0.1l0.4-1.3L16.6,15.9L16.6,15.9z M15.6,15.9c0,0,0.1,0.1,0.1,0.1c0,0.1,0,0.2-0.1,0.4L15,18.6
				c0,0.2-0.1,0.3-0.1,0.3c0,0.1-0.1,0.1-0.1,0.1c-0.1,0-0.2,0-0.3,0l0,0.1h1.4c0.5,0,0.9,0,1.1-0.1c0.2-0.1,0.4-0.2,0.5-0.4
				c0.1-0.2,0.2-0.3,0.2-0.5c0-0.2-0.1-0.3-0.2-0.5c-0.1-0.1-0.3-0.3-0.7-0.3c0.3-0.1,0.5-0.1,0.7-0.2c0.1-0.1,0.3-0.2,0.3-0.3
				c0.1-0.1,0.1-0.2,0.1-0.4c0-0.1,0-0.3-0.1-0.4c-0.1-0.1-0.2-0.2-0.4-0.2c-0.1,0-0.3,0-0.6,0h-1.3l0,0.1
				C15.4,15.9,15.6,15.9,15.6,15.9l0.9,1.6c0.1,0,0.2,0.1,0.2,0.2c0.1,0.1,0.1,0.2,0.1,0.3c0,0.2-0.1,0.5-0.2,0.7
				c-0.1,0.2-0.4,0.3-0.8,0.3c0,0-0.1,0-0.2,0l0.4-1.5c0.2,0,0.4,0,0.4,0.1L15.6,15.9L15.6,15.9L15.6,15.9z"/>
			<path class="st1" d="M20,16.7L20,17.8h-0.9L20,16.7L20,16.7z M19.9,18.9c0,0.1-0.1,0.1-0.1,0.1c0,0-0.1,0-0.3,0l0,0.1H21l0-0.1
				c-0.1,0-0.2,0-0.2-0.1c0-0.1-0.1-0.1-0.1-0.2c0,0,0-0.1,0-0.3l0.1-2.8h-0.1l-2.4,2.9c-0.2,0.2-0.3,0.3-0.4,0.4
				c-0.1,0-0.2,0.1-0.2,0.1l0,0.1h1V19c-0.1,0-0.2,0-0.2-0.1c0,0-0.1-0.1-0.1-0.1s0-0.1,0-0.1c0,0,0.1-0.1,0.1-0.2l0.2-0.3l0.2-0.3
				h1l0,0.4C20,18.7,19.9,18.8,19.9,18.9L19.9,18.9L19.9,18.9z"/>
			<path class="st1" d="M24.3,18.2l-0.4,0.9h-2.7l0-0.1c0.2,0,0.3,0,0.4-0.1c0.1-0.1,0.1-0.2,0.2-0.4l0.6-2.2c0-0.1,0.1-0.2,0.1-0.3
				s0-0.1-0.1-0.2c0,0-0.1-0.1-0.3-0.1l0-0.1h1.6l0,0.1c-0.2,0-0.3,0-0.3,0.1c-0.1,0.1-0.1,0.2-0.2,0.4l-0.6,2
				c-0.1,0.3-0.1,0.4-0.1,0.5c0,0,0,0.1,0.1,0.1c0,0,0.1,0,0.2,0c0.3,0,0.5-0.1,0.8-0.2c0.3-0.1,0.5-0.3,0.7-0.6L24.3,18.2
				L24.3,18.2z"/>
		</g>
	</g>
</g>
</svg>
