<svg width="34" height="22" viewBox="0 0 34 22" fill="none" xmlns="http://www.w3.org/2000/svg">
<path d="M18.8891 19.9998C23.6531 20.024 27.9998 15.9874 27.9998 11.078C27.9998 5.70902 23.6531 2 18.8891 2H14.7893C9.96784 2 6 5.71122 6 11.078C6 15.9896 9.96784 20.0284 14.7893 19.9998H18.8891Z" fill="#0064A7"/>
<path d="M16.6178 15.8511V6.10917C17.5738 6.48603 18.3964 7.15386 18.9768 8.02427C19.5571 8.89467 19.8679 9.9266 19.8679 10.9834C19.8679 12.0403 19.5571 13.0722 18.9768 13.9426C18.3964 14.813 17.5738 15.4809 16.6178 15.8577V15.8511ZM9.75285 10.9834C9.75462 9.92756 10.0656 8.89693 10.645 8.02699C11.2244 7.15704 12.045 6.48848 12.9991 6.10917V15.8511C12.0455 15.473 11.2251 14.8056 10.6457 13.9368C10.0663 13.068 9.75502 12.0384 9.75285 10.9834ZM14.8084 2.74313C13.2304 2.74269 11.6877 3.22561 10.3754 4.1308C9.06308 5.03599 8.04015 6.3228 7.43597 7.82848C6.83179 9.33417 6.67349 10.9911 6.98109 12.5897C7.2887 14.1883 8.04838 15.6568 9.16408 16.8094C10.2798 17.9621 11.7014 18.7471 13.249 19.0653C14.7967 19.3834 16.401 19.2203 17.859 18.5967C19.3169 17.9731 20.5631 16.9169 21.4398 15.5617C22.3166 14.2066 22.7846 12.6133 22.7846 10.9834C22.7846 8.79835 21.9443 6.70273 20.4485 5.15744C18.9528 3.61214 16.924 2.74371 14.8084 2.74313Z" fill="white"/>
<path d="M18.8891 19.9998C23.6531 20.024 27.9998 15.9874 27.9998 11.078C27.9998 5.70902 23.6531 2 18.8891 2H14.7893C9.96784 2 6 5.71122 6 11.078C6 15.9896 9.96784 20.0284 14.7893 19.9998H18.8891Z" fill="#0064A7"/>
<path d="M16.6178 15.8511V6.10917C17.5738 6.48603 18.3964 7.15386 18.9768 8.02427C19.5571 8.89467 19.8679 9.9266 19.8679 10.9834C19.8679 12.0403 19.5571 13.0722 18.9768 13.9426C18.3964 14.813 17.5738 15.4809 16.6178 15.8577V15.8511ZM9.75285 10.9834C9.75462 9.92756 10.0656 8.89693 10.645 8.02699C11.2244 7.15704 12.045 6.48848 12.9991 6.10917V15.8511C12.0455 15.473 11.2251 14.8056 10.6457 13.9368C10.0663 13.068 9.75502 12.0384 9.75285 10.9834ZM14.8084 2.74313C13.2304 2.74269 11.6877 3.22561 10.3754 4.1308C9.06308 5.03599 8.04015 6.3228 7.43597 7.82848C6.83179 9.33417 6.67349 10.9911 6.98109 12.5897C7.2887 14.1883 8.04838 15.6568 9.16408 16.8094C10.2798 17.9621 11.7014 18.7471 13.249 19.0653C14.7967 19.3834 16.401 19.2203 17.859 18.5967C19.3169 17.9731 20.5631 16.9169 21.4398 15.5617C22.3166 14.2066 22.7846 12.6133 22.7846 10.9834C22.7846 8.79835 21.9443 6.70273 20.4485 5.15744C18.9528 3.61214 16.924 2.74371 14.8084 2.74313Z" fill="white"/>
</svg>
