<svg width="34" height="22" viewBox="0 0 34 22" fill="none" xmlns="http://www.w3.org/2000/svg">
<path fill-rule="evenodd" clip-rule="evenodd" d="M0 9.27568C0 9.18874 0.0125682 9.15693 0.112262 9.15841C0.623511 9.16562 1.13476 9.15141 1.64601 9.16711C2.39712 9.19043 3.07964 9.40843 3.63647 9.93647C4.01354 10.2892 4.26576 10.7539 4.35542 11.2612C4.54437 12.2899 4.25296 13.1628 3.46584 13.8607C3.03618 14.2424 2.5211 14.4333 1.9534 14.4786C1.32648 14.5291 0.697855 14.489 0.0700838 14.5026C-0.00511249 14.5043 0.00340833 14.4638 0.00340833 14.4178C0.00213021 13.8906 0.00319531 10.1278 0 9.27568ZM1.04508 13.4983C1.04508 13.5706 1.05999 13.5937 1.13689 13.5929C1.34608 13.5901 1.5559 13.5929 1.76381 13.5691C2.14384 13.5267 2.50022 13.4181 2.77821 13.1412C3.24686 12.6746 3.41728 12.1093 3.28776 11.4686C3.15696 10.8233 2.78397 10.3687 2.13745 10.1689C1.82239 10.0718 1.49455 10.0779 1.16863 10.0737C1.07575 10.0726 1.04359 10.0909 1.04465 10.1924C1.04998 10.7389 1.04827 12.9444 1.04508 13.4983Z" fill="#231F20"/>
<path fill-rule="evenodd" clip-rule="evenodd" d="M31.7109 12.2626C32.2728 13.0105 32.8258 13.747 33.3923 14.5011H33.1673C32.8514 14.5011 32.5353 14.4962 32.2194 14.5041C32.1237 14.5064 32.0756 14.471 32.0259 14.397C31.588 13.7433 31.1477 13.0911 30.7052 12.4403C30.6986 12.432 30.6929 12.4231 30.6882 12.4136C30.6615 12.3485 30.6042 12.3527 30.5535 12.3631C30.4975 12.3746 30.5244 12.4267 30.5241 12.4598C30.5224 13.0996 30.5201 13.7392 30.5258 14.379C30.5258 14.485 30.495 14.5062 30.3957 14.5035C30.1188 14.4965 29.8418 14.499 29.5649 14.5035C29.495 14.5035 29.4667 14.4918 29.4669 14.4129C29.4692 12.6917 29.4692 10.9704 29.4669 9.24918C29.4669 9.19086 29.4731 9.15927 29.5455 9.16096C30.142 9.17326 30.7384 9.13721 31.3349 9.18217C31.7484 9.21377 32.1371 9.3251 32.4552 9.60629C32.8365 9.94305 32.9438 10.3846 32.9179 10.871C32.8797 11.5865 32.488 12.0586 31.7901 12.235C31.7656 12.2397 31.7433 12.2505 31.7109 12.2626ZM30.522 10.8153C30.522 11.0515 30.5263 11.288 30.5197 11.5242C30.5175 11.6071 30.5437 11.6234 30.6202 11.6203C30.7757 11.6139 30.9314 11.6173 31.0869 11.601C31.5426 11.553 31.8016 11.2909 31.8355 10.8375C31.8628 10.4717 31.6749 10.195 31.3242 10.0809C31.0944 10.0058 30.8573 10.0141 30.6213 10.0094C30.544 10.0079 30.5175 10.0247 30.5197 10.1072C30.5258 10.3424 30.522 10.5788 30.522 10.8153Z" fill="#231F20"/>
<path fill-rule="evenodd" clip-rule="evenodd" d="M25.8181 9.26508C25.8181 9.18492 25.8343 9.15905 25.921 9.15905C26.8441 9.16258 27.7672 9.16258 28.6902 9.15905C28.762 9.15905 28.788 9.17283 28.7863 9.25024C28.7812 9.4975 28.7812 9.74491 28.7863 9.99246C28.788 10.0671 28.7601 10.0773 28.6954 10.0773C28.1238 10.0749 27.5523 10.0786 26.981 10.0735C26.8838 10.0735 26.8644 10.1006 26.8659 10.1914C26.8717 10.5129 26.871 10.8346 26.8659 11.156C26.8659 11.2364 26.8872 11.2559 26.9667 11.2553C27.5169 11.2519 28.0672 11.2553 28.6172 11.2513C28.7043 11.2513 28.7209 11.2771 28.7192 11.3573C28.7141 11.5941 28.7141 11.8309 28.7192 12.0677C28.7207 12.1423 28.6994 12.1602 28.6255 12.1597C28.0789 12.1566 27.5323 12.161 26.9852 12.1553C26.8832 12.1553 26.8644 12.1865 26.8655 12.2793C26.8704 12.6823 26.8698 13.0852 26.8655 13.4881C26.8655 13.5683 26.8815 13.5941 26.9684 13.5941C27.5397 13.5899 28.1115 13.5941 28.6828 13.5897C28.768 13.5897 28.7874 13.6132 28.7855 13.6942C28.7801 13.9379 28.7818 14.182 28.7855 14.4256C28.7855 14.4839 28.7716 14.5039 28.7094 14.5037C27.7721 14.5017 26.8348 14.5017 25.8975 14.5037C25.8123 14.5037 25.8189 14.4625 25.8189 14.407C25.82 13.5443 25.8209 10.1167 25.8181 9.26508Z" fill="#231F20"/>
<path fill-rule="evenodd" clip-rule="evenodd" d="M7.00156 12.9582C7.14279 13.2211 7.32897 13.4353 7.60312 13.5551C7.89794 13.684 8.20128 13.729 8.50718 13.5929C8.78517 13.4692 8.93535 13.2485 8.94728 12.9482C8.95921 12.6479 8.79923 12.4511 8.5402 12.3224C8.24197 12.1739 7.92052 12.0866 7.61633 11.9551C7.3181 11.8264 7.03585 11.6777 6.8305 11.4143C6.70901 11.2572 6.63319 11.0698 6.6113 10.8727C6.50287 9.9967 6.98537 9.36857 7.71709 9.16244C8.48141 8.94699 9.16967 9.13636 9.78637 9.61859C9.83195 9.65421 9.8475 9.67945 9.80383 9.73374C9.64691 9.9294 9.49403 10.1283 9.3452 10.3305C9.30004 10.392 9.2813 10.3746 9.23869 10.3305C9.07083 10.1523 8.87847 10.0079 8.62882 9.97252C8.31397 9.92756 8.01596 9.96764 7.79676 10.227C7.60078 10.4603 7.64445 10.7519 7.89198 10.9268C8.11416 11.0846 8.3717 11.163 8.62221 11.2597C8.85689 11.3477 9.08473 11.4529 9.30388 11.5742C9.75122 11.8264 9.9964 12.1964 10.0281 12.7149C10.082 13.5901 9.62 14.3293 8.75897 14.5497C7.84043 14.7846 6.94276 14.5242 6.35355 13.659C6.32926 13.6232 6.32649 13.6024 6.36015 13.5708C6.57424 13.3685 6.78555 13.1649 7.00156 12.9582Z" fill="#231F20"/>
<path fill-rule="evenodd" clip-rule="evenodd" d="M20.1984 9.16116C20.5627 9.16116 20.9103 9.1635 21.258 9.15926C21.3276 9.15926 21.3547 9.18322 21.3787 9.24408C21.6983 10.0499 22.6211 12.3601 22.7634 12.7166C22.8273 12.6456 23.7495 10.319 24.1838 9.24048C24.2013 9.19806 24.2136 9.15947 24.2769 9.15989C24.6316 9.16307 24.9863 9.16138 25.3561 9.16138C25.2708 9.36326 23.7522 12.9522 23.0767 14.555C23.0501 14.6186 23.0203 14.6398 22.9538 14.6366C22.8192 14.6315 22.6841 14.632 22.5491 14.6366C22.489 14.6387 22.462 14.6169 22.4398 14.5633C22.0229 13.5568 20.5607 10.0404 20.2482 9.28755C20.231 9.24875 20.2169 9.20951 20.1984 9.16116Z" fill="#231F20"/>
<path fill-rule="evenodd" clip-rule="evenodd" d="M14.4928 10.6051C14.295 10.4168 14.1054 10.2586 13.8789 10.1543C12.9876 9.74391 11.9147 10.1846 11.5713 11.1255C11.3067 11.8503 11.3947 12.5395 11.9264 13.1282C12.2817 13.5216 12.7514 13.6652 13.2752 13.6599C13.6906 13.6554 14.0344 13.4872 14.3384 13.22C14.3831 13.1806 14.4264 13.1397 14.4698 13.0998C14.5075 13.121 14.4911 13.1522 14.4911 13.177C14.4924 13.5269 14.4911 13.8768 14.4926 14.2267C14.4926 14.2797 14.485 14.3115 14.427 14.3399C13.3508 14.8559 11.9894 14.6517 11.1465 13.7937C10.6255 13.2635 10.3688 12.6216 10.3526 11.8796C10.3268 10.624 11.1672 9.53015 12.3362 9.17728C13.0537 8.96161 13.7541 9.00275 14.4296 9.34036C14.466 9.35859 14.4935 9.37407 14.4935 9.42412C14.492 9.80923 14.4928 10.1941 14.4928 10.6051Z" fill="#231F20"/>
<path fill-rule="evenodd" clip-rule="evenodd" d="M5.93795 14.3847C5.93795 14.4723 5.92517 14.5068 5.82419 14.5041C5.54045 14.4956 5.25628 14.499 4.97211 14.5026C4.90331 14.5026 4.882 14.4858 4.882 14.415C4.88413 12.6939 4.88413 10.9727 4.882 9.2515C4.882 9.1741 4.90778 9.15883 4.97914 9.15968C5.25948 9.1635 5.54002 9.16541 5.82036 9.15968C5.91324 9.15756 5.9388 9.17983 5.93837 9.27504C5.93433 10.1294 5.93475 13.5364 5.93795 14.3847Z" fill="#231F20"/>
<path fill-rule="evenodd" clip-rule="evenodd" d="M33.5897 9.12448C33.5077 9.12373 33.4272 9.14726 33.3586 9.1921C33.29 9.23693 33.2363 9.30105 33.2044 9.37631C33.1725 9.45157 33.1637 9.53458 33.1793 9.61479C33.1948 9.69501 33.234 9.76883 33.2917 9.82686C33.3495 9.8849 33.4233 9.92454 33.5037 9.94076C33.5841 9.95698 33.6676 9.94904 33.7435 9.91795C33.8194 9.88687 33.8843 9.83403 33.9299 9.76616C33.9756 9.69828 34 9.61843 34 9.53673C34.0003 9.48285 33.9898 9.42944 33.9694 9.37956C33.9489 9.32968 33.9187 9.2843 33.8806 9.24602C33.8425 9.20774 33.7972 9.1773 33.7473 9.15645C33.6974 9.1356 33.6439 9.12473 33.5897 9.12448ZM33.5897 9.87243C33.4112 9.87243 33.2664 9.72208 33.2664 9.53673C33.2664 9.35139 33.4112 9.20104 33.5897 9.20104C33.7682 9.20104 33.9129 9.35139 33.9129 9.53673C33.9129 9.72208 33.7685 9.87243 33.5897 9.87243Z" fill="#252122"/>
<path fill-rule="evenodd" clip-rule="evenodd" d="M33.6255 9.57893L33.7774 9.78081H33.7561C33.7275 9.78081 33.699 9.78081 33.6709 9.78081C33.6673 9.78108 33.6638 9.78029 33.6607 9.77856C33.6576 9.77682 33.655 9.77421 33.6534 9.77106C33.6141 9.7121 33.5744 9.65322 33.5343 9.59441C33.5337 9.59374 33.5332 9.59294 33.5328 9.59208C33.5303 9.58614 33.5252 9.58656 33.5205 9.58741C33.5158 9.58826 33.5179 9.59314 33.5179 9.59611C33.5179 9.654 33.5179 9.71168 33.5179 9.76936C33.5179 9.77912 33.5152 9.78103 33.506 9.7806C33.4811 9.7806 33.4562 9.7806 33.431 9.7806C33.4248 9.7806 33.4223 9.7806 33.4223 9.77233C33.4223 9.61682 33.4223 9.4613 33.4223 9.30579C33.4223 9.30049 33.4223 9.29773 33.4295 9.29795C33.4832 9.29901 33.5371 9.29583 33.5908 9.29985C33.6279 9.30095 33.6635 9.31439 33.692 9.33803C33.7077 9.35234 33.7198 9.37017 33.7272 9.39005C33.7346 9.40993 33.7371 9.43128 33.7346 9.45233C33.7347 9.48144 33.7246 9.50967 33.706 9.53214C33.6874 9.5546 33.6615 9.56988 33.6328 9.57532L33.6255 9.57893ZM33.519 9.44809C33.519 9.46929 33.519 9.4905 33.519 9.51171C33.519 9.51913 33.5211 9.52061 33.5279 9.5204C33.542 9.5204 33.5561 9.5204 33.5706 9.5187C33.5887 9.51837 33.606 9.51092 33.6186 9.49797C33.6312 9.48502 33.6382 9.46763 33.6381 9.44957C33.6398 9.43461 33.6361 9.41954 33.6276 9.40703C33.6192 9.39453 33.6066 9.38541 33.5921 9.38129C33.5712 9.37606 33.5497 9.37392 33.5282 9.37492C33.5211 9.37492 33.5188 9.37641 33.519 9.38383C33.5186 9.40546 33.5181 9.42688 33.5181 9.44809H33.519Z" fill="#231F20"/>
<path d="M17.6613 14.6646C19.227 14.6646 20.4962 13.3966 20.4962 11.8323C20.4962 10.2681 19.227 9 17.6613 9C16.0957 9 14.8264 10.2681 14.8264 11.8323C14.8264 13.3966 16.0957 14.6646 17.6613 14.6646Z" fill="url(#paint0_linear)"/>
<defs>
<linearGradient id="paint0_linear" x1="16.4595" y1="9.26635" x2="18.8454" y2="14.4063" gradientUnits="userSpaceOnUse">
<stop offset="0.38" stop-color="#E35E26"/>
<stop offset="1" stop-color="#F9A121"/>
</linearGradient>
</defs>
</svg>
