<svg width="34" height="22" viewBox="0 0 34 22" fill="none" xmlns="http://www.w3.org/2000/svg">
<path d="M5.30046 6.88146C5.6925 6.75083 6.10306 6.68452 6.51624 6.68508C8.37071 6.68508 9.91808 8.00338 10.2726 9.75566L12.9009 9.21914C12.2974 6.24121 9.66849 4.0001 6.51624 4.0001C5.81405 3.99942 5.11637 4.11256 4.4503 4.33513L5.30046 6.88146Z" fill="#FFCB05"/>
<path d="M2.19908 15.4082L3.97631 13.3967C3.5697 13.0368 3.24408 12.5946 3.02103 12.0992C2.79798 11.6039 2.68258 11.0668 2.68247 10.5235C2.68235 9.98016 2.79753 9.44301 3.02038 8.9476C3.24323 8.45219 3.56865 8.00982 3.97512 7.64979L2.19755 5.6381C0.850768 6.83292 9.51232e-05 8.57839 9.51232e-05 10.5221C-0.000872215 11.4461 0.19473 12.3598 0.573887 13.2023C0.953044 14.0447 1.50706 14.7967 2.19908 15.4082Z" fill="#00A4E0"/>
<path d="M10.2716 11.2921C9.9157 13.0443 8.36935 14.3593 6.51624 14.3593C6.10275 14.3601 5.69188 14.2935 5.29978 14.1621L4.44911 16.7096C5.11565 16.9319 5.8137 17.0449 6.51624 17.0441C9.66577 17.0441 12.2942 14.8068 12.8997 11.8322L10.2716 11.2921Z" fill="#EF4123"/>
<path d="M15.1985 13.4815C15.0962 13.3115 15.0048 13.1351 14.9248 12.9535C14.5086 11.9862 14.4887 10.9852 14.8397 10.0239C15.2263 8.97012 15.9643 8.1633 16.9181 7.75265C18.1172 7.23589 19.4434 7.33775 20.593 8.0204C21.3232 8.43974 21.8406 9.08714 22.2336 10.0026C22.2846 10.1198 22.3277 10.245 22.3707 10.3513L15.1985 13.4815ZM17.5935 9.30634C16.7428 9.67271 16.303 10.4724 16.3932 11.41L20.0001 9.8558C19.3803 9.12682 18.573 8.88411 17.5935 9.30634ZM20.4502 12.6879C20.4495 12.6886 20.4487 12.6893 20.448 12.69L20.3733 12.6389C20.1581 12.9886 19.8223 13.2718 19.3983 13.4564C18.592 13.8075 17.8448 13.7174 17.3082 13.2461L17.2589 13.3212C17.2589 13.3212 17.2589 13.3197 17.2573 13.3197L16.3422 14.6903C16.5698 14.8486 16.8136 14.9824 17.0695 15.0892C18.0803 15.5095 19.1147 15.4903 20.1336 15.0466C20.8706 14.7269 21.4489 14.2391 21.8442 13.6211L20.4502 12.6879Z" fill="#231F20"/>
<path d="M24.878 5.73501V13.3549L26.0613 13.8351L25.3889 15.4058L24.0826 14.8608C23.7897 14.7337 23.5892 14.5394 23.4388 14.3196C23.2946 14.0958 23.1864 13.7887 23.1864 13.3752V5.73501H24.878Z" fill="#231F20"/>
<path d="M27.9435 11.4138C27.9435 11.1055 28.0095 10.8009 28.1371 10.5204C28.2647 10.2399 28.4509 9.99001 28.6832 9.78768L27.4691 8.43242C27.0473 8.80576 26.7095 9.2645 26.478 9.7783C26.2465 10.2921 26.1266 10.8493 26.1263 11.4129C26.1259 11.9766 26.2451 12.5339 26.4759 13.048C26.7068 13.5621 27.044 14.0212 27.4654 14.3951L28.6779 13.0385C28.4468 12.8358 28.2617 12.5859 28.1351 12.3057C28.0084 12.0255 27.9431 11.7213 27.9435 11.4138Z" fill="#231F20"/>
<path d="M30.1008 13.5765C29.8683 13.576 29.6374 13.5383 29.4168 13.4648L28.8369 15.1903C29.2436 15.3269 29.6699 15.3966 30.0989 15.3968C32.0214 15.3986 33.6265 14.0332 33.9982 12.2179L32.2161 11.8537C32.1153 12.3407 31.8498 12.7779 31.4645 13.0917C31.0792 13.4056 30.5975 13.5768 30.1008 13.5765Z" fill="#231F20"/>
<path d="M30.1059 7.43449C29.6774 7.43367 29.2517 7.50229 28.8452 7.63769L29.4197 9.36527C29.6405 9.29213 29.8715 9.25481 30.104 9.25474C30.6017 9.25506 31.0841 9.42762 31.4693 9.74317C31.8545 10.0587 32.1189 10.4979 32.2178 10.9862L34.0001 10.6245C33.6335 8.80627 32.0298 7.43586 30.1059 7.43449Z" fill="#231F20"/>
</svg>
