<svg width="34" height="22" viewBox="0 0 34 22" fill="none" xmlns="http://www.w3.org/2000/svg">
<path d="M8.77779 20H27.9476C28.2201 19.6216 28.4071 19.1885 28.4956 18.7307C28.5841 18.2729 28.5721 17.8013 28.4603 17.3486L25.2427 4.43716C25.0346 3.61135 24.5083 2.90136 23.7787 2.46211C23.0491 2.02286 22.1754 1.89001 21.3482 2.09255L8.43672 5.31023C7.61121 5.51881 6.90158 6.04517 6.46242 6.77463C6.02326 7.50408 5.89015 8.37753 6.0921 9.20469L8.77779 20Z" fill="#EB5D15"/>
<path d="M11.7209 10.2043V12.2057H9.7903V10.2043H8.43137V15.6744H9.7903V13.3855H11.7209V15.6744H13.0788V10.2043H11.7209Z" fill="#FFFBFF"/>
<path d="M17.8881 11.5622C16.6718 11.5622 16.6364 12.2057 16.6364 12.2057V11.7048H15.5639V14.7444C14.9021 14.7444 14.9203 14.0108 14.9203 14.0108V11.7048H13.5979V13.9711C13.5979 15.6733 15.5102 15.7805 15.5102 15.7805V17.1749H16.8155V15.817C19.3178 15.817 19.6042 14.7616 19.6042 13.7255C19.6042 12.6894 19.1033 11.5622 17.8881 11.5622ZM17.28 14.7444H16.8155V13.1174C16.8155 13.1174 16.8692 12.5993 17.4945 12.5993C18.1198 12.5993 18.2635 13.3855 18.2635 13.7963C18.2635 14.2071 18.138 14.7444 17.28 14.7444Z" fill="white"/>
<path d="M14.9203 10.6419C14.9201 10.7817 14.8785 10.9183 14.8006 11.0344C14.7228 11.1505 14.6122 11.241 14.483 11.2943C14.3538 11.3476 14.2116 11.3614 14.0746 11.3339C13.9375 11.3064 13.8117 11.2389 13.713 11.1399C13.6143 11.0409 13.5471 10.9148 13.5201 10.7777C13.493 10.6405 13.5072 10.4984 13.5609 10.3694C13.6146 10.2403 13.7054 10.13 13.8217 10.0526C13.9381 9.97506 14.0748 9.93382 14.2146 9.93403C14.3074 9.93417 14.3993 9.95259 14.485 9.98824C14.5707 10.0239 14.6485 10.0761 14.7141 10.1418C14.7796 10.2075 14.8315 10.2855 14.8669 10.3714C14.9023 10.4572 14.9205 10.5491 14.9203 10.6419Z" fill="#FCCF11"/>
<path d="M21.7311 11.5622C19.675 11.5622 19.8005 13.8864 19.8005 13.8499C19.8005 13.8135 19.675 15.7988 21.8201 15.7988C22.3519 15.7861 22.8778 15.6835 23.3753 15.4952L23.2509 14.6007C23.2509 14.6007 21.1412 15.1735 20.962 14.0644H23.519C23.519 14.0644 23.7872 11.5622 21.7311 11.5622ZM22.4465 13.1892H20.9449C20.9449 13.1892 20.8913 12.3483 21.6957 12.3483C22.5001 12.3483 22.4465 13.1892 22.4465 13.1892Z" fill="#FFFBFF"/>
<path d="M25.0292 11.7048H23.8408V15.6733H25.2351V13.3855C25.2351 13.3855 25.1633 12.5629 26.3077 12.7956V11.5622C26.3077 11.5622 25.396 11.3477 25.0206 12.2057L25.0292 11.7048Z" fill="#FFFBFF"/>
</svg>
