<svg width="34" height="22" viewBox="0 0 34 22" fill="none" xmlns="http://www.w3.org/2000/svg">
<path fill-rule="evenodd" clip-rule="evenodd" d="M9.33395 4H5.80994C4.25284 4.07342 2.98006 4.7008 2.61297 5.9936C2.42075 6.6697 2.3153 7.40921 2.1658 8.108C1.40159 11.6634 0.728829 15.3155 0 18.7995H27.4312C29.5516 18.7995 31.0079 18.3517 31.4017 16.6684C31.5846 15.8862 31.7595 14.9998 31.9357 14.1415C32.6191 10.7917 33.3045 7.44258 34 4H9.33395Z" fill="#9A1915"/>
<path fill-rule="evenodd" clip-rule="evenodd" d="M9.05829 9.25998C9.20579 9.15853 9.39601 8.69601 9.17909 8.50379C9.11057 8.44239 8.996 8.42503 8.83537 8.45173C8.77877 8.45611 8.72366 8.47199 8.6734 8.49838C8.62313 8.52477 8.57878 8.56113 8.54304 8.60524C8.4496 8.73272 8.36417 9.11582 8.50833 9.25865C8.65249 9.40148 8.96485 9.32472 9.05829 9.25998ZM6.96124 8.50379C6.85578 9.18857 6.73698 9.86067 6.61751 10.5321C5.85198 10.5408 5.07242 10.5695 4.33158 10.5147C4.47107 9.858 4.57119 9.1612 4.71001 8.50379H3.88441C3.5894 10.179 3.32043 11.8816 2.99072 13.5228H3.83301C3.9665 12.6805 4.08864 11.8302 4.26284 11.03C4.98099 11.0126 5.84197 10.9819 6.53208 11.0473C6.38925 11.879 6.21773 12.6812 6.08491 13.5228H6.9272C7.19417 11.8222 7.48316 10.1363 7.82088 8.50379H6.96124ZM18.8735 9.94743C18.218 9.68046 17.7028 10.1303 17.4638 10.5481C17.5186 10.3619 17.5406 10.1437 17.5847 9.94743H16.9312C16.7717 11.1855 16.5361 12.3502 16.3125 13.5228H17.0514C17.1548 12.826 17.1995 11.8863 17.4298 11.2195C17.6134 10.6856 18.0972 10.2324 18.7874 10.48C18.7974 10.2838 18.8534 10.1336 18.8735 9.94743ZM19.2859 12.6839C19.2192 12.5077 19.2005 12.2167 19.2192 11.9964C19.2579 11.4999 19.4388 10.8952 19.7177 10.6209C20.1035 10.2431 20.8644 10.3058 21.4711 10.5181C21.4898 10.3132 21.5311 10.131 21.5572 9.93341C20.5614 9.77123 19.617 9.87201 19.1164 10.4006C18.6258 10.9145 18.3048 12.0972 18.5317 12.8414C18.7987 13.709 19.9901 13.7591 20.9552 13.4254C20.9979 13.2505 21.0219 13.0556 21.0586 12.8754C20.5293 13.1437 19.5209 13.2859 19.2886 12.6805L19.2859 12.6839ZM27.5887 9.96812C26.9353 9.64108 26.3913 10.1897 26.1791 10.5181C26.2392 10.3492 26.2458 10.1236 26.2992 9.95077H25.6458C25.4678 11.1779 25.2558 12.3697 25.0098 13.5262H25.7666C25.7713 13.0523 25.8641 12.7019 25.9382 12.2367C26.0963 11.2449 26.3286 10.1563 27.4852 10.4834C27.524 10.3125 27.5393 10.1223 27.5887 9.96478V9.96812ZM8.30009 9.95077C8.28007 9.95077 8.28141 9.97813 8.28341 10.0022C8.11989 11.2202 7.89964 12.3809 7.66404 13.5262H8.40355C8.58108 12.3001 8.78465 11.0994 9.0396 9.95077H8.30009ZM14.7975 9.88403C14.2635 9.92541 13.8124 10.0789 13.4913 10.418C13.0982 10.8324 12.7792 11.7528 12.8726 12.5838C13.0061 13.7751 14.4885 13.7324 15.6758 13.4434C15.6958 13.2345 15.7466 13.0556 15.7786 12.8587C15.29 13.0416 14.4437 13.2972 13.9398 12.9795C13.5601 12.7393 13.5581 12.1319 13.6815 11.604C14.4791 11.5786 15.3074 11.584 16.1056 11.604C16.1564 11.2302 16.3012 10.8224 16.1724 10.4527C16.0075 9.95811 15.4088 9.83197 14.7995 9.87869L14.7975 9.88403ZM15.5023 11.1902H13.767C13.8043 10.954 13.923 10.7384 14.1025 10.5805C14.282 10.4227 14.5111 10.3326 14.7501 10.3259C15.284 10.3052 15.6618 10.5207 15.5043 11.1848L15.5023 11.1902ZM11.9976 9.94743C11.3723 9.7125 10.6101 9.99282 10.2797 10.2598C10.2797 10.2718 10.2717 10.2731 10.2617 10.2738L10.2797 10.2598C10.285 10.145 10.3257 10.0649 10.3311 9.9501H9.69501C9.42804 11.7134 9.11569 13.4274 8.78398 15.124H9.52349C9.63027 14.4632 9.70102 13.7664 9.84986 13.1471C10.0187 13.7978 11.1213 13.6737 11.5852 13.4221C12.5476 12.9008 13.2851 10.4306 11.9976 9.94743ZM11.413 12.8521C11.0172 13.2712 10.0454 13.2645 9.96866 12.5604C9.93595 12.2534 10.0501 11.9317 10.1068 11.6147C10.1635 11.2976 10.2049 10.9859 10.261 10.7036C10.6508 10.2284 11.7961 10.1697 11.9115 10.9613C12.0137 11.648 11.7407 12.5057 11.413 12.8521ZM30.3378 8.40034C30.2744 8.95564 30.1897 9.49024 30.0802 9.99882C28.2668 9.42484 27.1555 10.759 27.1749 12.4056C27.1789 12.7239 27.2336 13.0396 27.4332 13.2652C27.7762 13.653 28.7587 13.7458 29.2553 13.4194C29.3532 13.3465 29.44 13.2597 29.5129 13.1618C29.5609 13.1017 29.637 12.9448 29.6504 12.9896C29.6159 13.1658 29.5936 13.3442 29.5836 13.5235H30.2511C30.3805 11.6701 30.7803 10.0869 31.0767 8.401L30.3378 8.40034ZM28.6879 13.127C28.19 13.1384 27.9431 12.83 27.9318 12.3195C27.9117 11.4251 28.3042 10.432 29.1004 10.3425C29.4708 10.3012 29.7398 10.3873 30.0115 10.48C29.7625 11.4845 29.8526 13.1024 28.6886 13.127H28.6879ZM22.3114 9.94743C22.2747 10.1517 22.2193 10.3365 22.1739 10.5321C22.6104 10.4226 23.9679 10.0869 24.0987 10.6696C24.1428 10.8625 24.0674 11.07 24.0133 11.2195C22.7852 11.1027 21.7841 11.307 21.5205 12.182C21.3443 12.768 21.5405 13.3446 21.9162 13.5055C22.6397 13.8158 23.5181 13.4608 23.8237 12.9715C23.7842 13.1521 23.7669 13.3368 23.7724 13.5215H24.4084C24.4151 12.9121 24.5039 12.4196 24.5973 11.871C24.6774 11.4038 24.8276 10.9426 24.8035 10.5308C24.7488 9.58836 23.1864 9.92207 22.3114 9.94743ZM23.5127 12.8354C23.1316 13.2078 22.0624 13.3139 22.1719 12.4229C22.2626 11.6821 23.0689 11.5252 23.9426 11.632C23.8791 12.0371 23.8051 12.5511 23.5147 12.8354H23.5127Z" fill="white"/>
</svg>
