<svg width="34" height="22" viewBox="0 0 34 22" fill="none" xmlns="http://www.w3.org/2000/svg">
<g clip-path="url(#clip0)">
<path d="M8.75434 3C8.03278 3.02334 7.34702 3.31982 6.8357 3.82947C6.32439 4.33912 6.02569 5.02392 6 5.7454V12.8369C6.64847 13.1324 7.33457 13.337 8.03893 13.445C9.15229 13.5255 9.82746 13.1544 9.94819 12.2288V8.81273H12.4119V12.1841C12.2822 14.1157 10.5921 14.5092 8.0121 14.3795C7.33271 14.3231 6.65949 14.2079 6 14.0352L6 19.9911H10.2925C11.0036 19.9521 11.6741 19.6473 12.1711 19.1371C12.668 18.6269 12.955 17.9486 12.9753 17.2367V3H8.75434Z" fill="url(#paint0_linear)"/>
<path d="M16.6239 3C15.9035 3.02451 15.2194 3.32163 14.7098 3.83127C14.2001 4.34092 13.903 5.02507 13.8785 5.7454V9.50579C14.737 8.83062 16.1141 8.50421 17.9027 8.63835C18.629 8.68047 19.3494 8.7943 20.0534 8.97817V10.1541C19.4057 9.83683 18.7086 9.63267 17.9921 9.5505C16.3243 9.42977 15.4524 10.2078 15.4524 11.4687C15.4524 12.6044 16.1276 13.5792 17.9832 13.4495C18.6944 13.3441 19.387 13.1378 20.04 12.8369V13.995C19.1825 14.2293 18.2995 14.3569 17.4108 14.3751C15.7654 14.3751 14.6073 14.0397 13.8695 13.4808V19.9911H18.162C18.8731 19.9521 19.5437 19.6473 20.0406 19.1371C20.5375 18.6269 20.8246 17.9486 20.8448 17.2367V3H16.6239Z" fill="url(#paint1_linear)"/>
<path d="M24.7796 11.8443C24.3056 11.8443 23.2817 11.8443 23.0984 11.8443V13.3467H24.7796C24.9785 13.3397 25.1668 13.2554 25.3046 13.1118C25.4423 12.9682 25.5187 12.7766 25.5174 12.5776C25.515 12.3831 25.4364 12.1972 25.2984 12.0601C25.1605 11.9229 24.9742 11.8454 24.7796 11.8443Z" fill="url(#paint2_linear)"/>
<path d="M25.2938 10.3375C25.2986 10.2466 25.285 10.1557 25.2538 10.0702C25.2226 9.98467 25.1745 9.90637 25.1122 9.83996C25.05 9.77355 24.975 9.72041 24.8917 9.68373C24.8084 9.64705 24.7186 9.62759 24.6276 9.62651C24.1402 9.62651 23.2862 9.62651 23.0805 9.62651V10.9947H24.6678C24.8352 10.9826 24.992 10.9085 25.1077 10.787C25.2234 10.6655 25.2898 10.5052 25.2938 10.3375Z" fill="url(#paint3_linear)"/>
<path d="M24.4576 3C23.7373 3.02451 23.0532 3.32163 22.5435 3.83127C22.0339 4.34092 21.7368 5.02507 21.7122 5.7454V8.76802H25.7901C26.5994 8.76802 27.5786 9.11678 27.5786 10.1094C27.5786 10.6415 27.2969 11.2407 26.282 11.4508V11.4732C26.8722 11.4732 27.9006 11.8219 27.9006 12.8682C27.9006 13.9145 26.7917 14.2499 26.197 14.2499H21.7257V19.9911H26.0137C26.7248 19.9521 27.3953 19.6473 27.8922 19.1371C28.3892 18.6269 28.6762 17.9486 28.6965 17.2367V3H24.4576Z" fill="url(#paint4_linear)"/>
</g>
<defs>
<linearGradient id="paint0_linear" x1="6.00447" y1="11.5" x2="12.9887" y2="11.5" gradientUnits="userSpaceOnUse">
<stop stop-color="#313578"/>
<stop offset="1" stop-color="#0077BD"/>
</linearGradient>
<linearGradient id="paint1_linear" x1="13.874" y1="11.5" x2="20.8582" y2="11.5" gradientUnits="userSpaceOnUse">
<stop stop-color="#763137"/>
<stop offset="1" stop-color="#EE1846"/>
</linearGradient>
<linearGradient id="paint2_linear" x1="23.0805" y1="12.5999" x2="25.4995" y2="12.5999" gradientUnits="userSpaceOnUse">
<stop stop-color="#008149"/>
<stop offset="1" stop-color="#62BB45"/>
</linearGradient>
<linearGradient id="paint3_linear" x1="107.621" y1="32.0107" x2="118.626" y2="32.0107" gradientUnits="userSpaceOnUse">
<stop stop-color="#008149"/>
<stop offset="1" stop-color="#62BB45"/>
</linearGradient>
<linearGradient id="paint4_linear" x1="267.068" y1="326" x2="376.161" y2="326" gradientUnits="userSpaceOnUse">
<stop stop-color="#008149"/>
<stop offset="1" stop-color="#62BB45"/>
</linearGradient>
<clipPath id="clip0">
<rect x="6" y="3" width="22.692" height="17" fill="white"/>
</clipPath>
</defs>
</svg>
