<svg width="34" height="22" viewBox="0 0 34 22" fill="none" xmlns="http://www.w3.org/2000/svg">
<path d="M13.1837 19.1916V18.0975C13.1901 18.0055 13.1768 17.9131 13.1447 17.8267C13.1126 17.7402 13.0624 17.6615 12.9975 17.596C12.9327 17.5304 12.8545 17.4794 12.7684 17.4464C12.6823 17.4134 12.5901 17.3991 12.498 17.4045C12.3778 17.3969 12.2577 17.4217 12.1503 17.4762C12.0429 17.5307 11.952 17.613 11.8871 17.7145C11.8278 17.6158 11.743 17.5349 11.6416 17.4803C11.5402 17.4258 11.4259 17.3996 11.3109 17.4045C11.2109 17.3998 11.1114 17.4211 11.0221 17.4666C10.9329 17.512 10.8571 17.5798 10.8021 17.6635V17.4501H10.4228V19.1916H10.8057V18.2361C10.7973 18.1766 10.8021 18.1159 10.8199 18.0585C10.8377 18.0011 10.868 17.9483 10.9087 17.904C10.9493 17.8597 10.9993 17.825 11.0549 17.8023C11.1106 17.7796 11.1706 17.7696 11.2306 17.7729C11.4823 17.7729 11.6099 17.937 11.6099 18.2324V19.2008H11.9929V18.2361C11.9851 18.1765 11.9904 18.116 12.0086 18.0587C12.0267 18.0015 12.0572 17.9489 12.0979 17.9047C12.1386 17.8605 12.1885 17.8258 12.2441 17.803C12.2997 17.7803 12.3596 17.77 12.4196 17.7729C12.6767 17.7729 12.8007 17.937 12.8007 18.2324V19.2008L13.1837 19.1916ZM15.3173 18.3218V17.4501H14.9417V17.6616C14.8772 17.5788 14.794 17.5124 14.6989 17.468C14.6038 17.4236 14.4995 17.4025 14.3946 17.4063C14.1528 17.4063 13.9208 17.5024 13.7498 17.6734C13.5788 17.8444 13.4828 18.0763 13.4828 18.3181C13.4828 18.56 13.5788 18.7919 13.7498 18.9629C13.9208 19.1339 14.1528 19.2299 14.3946 19.2299C14.4995 19.2338 14.6038 19.2127 14.6989 19.1683C14.794 19.1239 14.8772 19.0575 14.9417 18.9746V19.1862H15.3191L15.3173 18.3218ZM13.9077 18.3218C13.9116 18.2186 13.9458 18.1188 14.0059 18.0348C14.0661 17.9509 14.1496 17.8865 14.2461 17.8496C14.3426 17.8127 14.4478 17.805 14.5486 17.8274C14.6494 17.8498 14.7415 17.9013 14.8132 17.9756C14.885 18.0498 14.9334 18.1435 14.9524 18.2451C14.9713 18.3466 14.9601 18.4515 14.9199 18.5466C14.8798 18.6418 14.8126 18.7231 14.7266 18.7804C14.6407 18.8377 14.5398 18.8684 14.4365 18.8689C14.3653 18.8697 14.2946 18.856 14.2289 18.8285C14.1632 18.8011 14.1037 18.7605 14.0542 18.7093C14.0047 18.6581 13.9662 18.5973 13.941 18.5307C13.9158 18.464 13.9044 18.3929 13.9077 18.3218ZM23.4233 17.41C23.5483 17.4097 23.6722 17.4338 23.788 17.4811C23.8985 17.5241 23.9992 17.5888 24.0841 17.6715C24.169 17.7542 24.2364 17.8532 24.2822 17.9625C24.3775 18.1963 24.3775 18.4582 24.2822 18.692C24.2364 18.8008 24.1695 18.8993 24.0852 18.9819C23.9997 19.0652 23.8988 19.1309 23.788 19.1752C23.548 19.2677 23.2821 19.2677 23.0421 19.1752C22.9029 19.1167 22.7801 19.0249 22.6846 18.9078C22.5891 18.7907 22.5238 18.652 22.4945 18.5038C22.4651 18.3557 22.4726 18.2025 22.5163 18.0579C22.5599 17.9133 22.6384 17.7816 22.7449 17.6744C22.8309 17.5945 22.9319 17.5325 23.0421 17.492C23.1618 17.4371 23.2916 17.4073 23.4233 17.4045V17.41ZM23.4233 17.7747C23.349 17.7735 23.2752 17.7872 23.2062 17.8148C23.1413 17.8409 23.0823 17.88 23.033 17.9297C22.9835 17.9826 22.9445 18.0445 22.9181 18.1121C22.8896 18.184 22.8753 18.2608 22.8762 18.3382C22.8757 18.4156 22.8899 18.4923 22.9181 18.5643C22.9448 18.6317 22.9837 18.6936 23.033 18.7467C23.0823 18.7964 23.1413 18.8355 23.2062 18.8616C23.3449 18.9175 23.4998 18.9175 23.6384 18.8616C23.7067 18.8366 23.7688 18.7974 23.8208 18.7467C23.8715 18.6943 23.9111 18.6323 23.9375 18.5643C23.9657 18.4923 23.98 18.4156 23.9795 18.3382C23.9803 18.2608 23.9661 18.184 23.9375 18.1121C23.9111 18.0441 23.8715 17.9821 23.8208 17.9297C23.7688 17.879 23.7067 17.8398 23.6384 17.8148C23.5708 17.7836 23.4977 17.7663 23.4233 17.7638V17.7747ZM17.378 18.3327C17.378 17.7856 17.0406 17.4209 16.5519 17.4209C16.3101 17.4243 16.0795 17.5236 15.9109 17.697C15.7423 17.8704 15.6495 18.1037 15.6529 18.3455C15.6563 18.5873 15.7556 18.8179 15.929 18.9865C16.1023 19.1551 16.3356 19.2479 16.5774 19.2445C16.8371 19.2539 17.0911 19.1669 17.2905 19.0002L17.1081 18.7193C16.9641 18.8348 16.7857 18.899 16.6011 18.9017C16.4759 18.912 16.3515 18.8733 16.2542 18.7937C16.1569 18.7141 16.0943 18.5998 16.0796 18.475H17.3725C17.3744 18.4184 17.378 18.3728 17.378 18.3218V18.3327ZM16.0814 18.1795C16.088 18.0625 16.1402 17.9527 16.2268 17.8736C16.3133 17.7945 16.4274 17.7525 16.5446 17.7565C16.6014 17.7553 16.6578 17.7652 16.7107 17.7859C16.7636 17.8065 16.8119 17.8373 16.8529 17.8766C16.8939 17.9159 16.9267 17.9628 16.9496 18.0148C16.9724 18.0668 16.9847 18.1228 16.9859 18.1795H16.0814ZM18.9737 17.906C18.8071 17.8101 18.6187 17.7586 18.4266 17.7565C18.2187 17.7565 18.0947 17.8331 18.0947 17.9607C18.0947 18.0884 18.226 18.1102 18.3901 18.1321L18.5725 18.1577C18.9518 18.2124 19.1815 18.3728 19.1815 18.6774C19.1815 19.0093 18.8898 19.2464 18.3883 19.2464C18.1189 19.2538 17.8543 19.1745 17.6333 19.0202L17.8157 18.7248C17.983 18.849 18.1873 18.9132 18.3956 18.9072C18.6527 18.9072 18.7913 18.8306 18.7913 18.6956C18.7913 18.5971 18.6928 18.5424 18.4868 18.5133L18.3044 18.4877C17.9141 18.4348 17.7026 18.2598 17.7026 17.9753C17.7026 17.6288 17.9871 17.4173 18.432 17.4173C18.6811 17.4089 18.9273 17.4722 19.1414 17.5996L18.9737 17.906ZM20.7973 17.8075H20.1754V18.5935C20.1754 18.7759 20.2374 18.8853 20.4252 18.8853C20.5436 18.8814 20.6591 18.8475 20.7608 18.7868L20.8702 19.1114C20.728 19.2 20.5637 19.2468 20.3961 19.2464C19.9493 19.2464 19.7925 19.0056 19.7925 18.6008V17.7966H19.4387V17.4501H19.7925V16.9231H20.1754V17.4501H20.7936L20.7973 17.8075ZM22.1084 17.4173C22.2004 17.4176 22.2917 17.4337 22.3783 17.4647L22.2616 17.8294C22.1862 17.7994 22.1057 17.7845 22.0246 17.7856C21.7765 17.7856 21.6598 17.9461 21.6598 18.2343V19.2099H21.2714V17.4501H21.6452V17.6616C21.6918 17.5817 21.759 17.5158 21.8399 17.4708C21.9208 17.4259 22.0123 17.4036 22.1048 17.4063L22.1084 17.4173ZM24.7308 18.9491C24.7539 18.9486 24.7769 18.9529 24.7983 18.9619C24.8193 18.971 24.8385 18.984 24.8548 19.0002C24.8716 19.0152 24.8847 19.034 24.8931 19.0549C24.9103 19.0982 24.9103 19.1465 24.8931 19.1898C24.8838 19.2103 24.8708 19.2288 24.8548 19.2445C24.8386 19.2604 24.8194 19.2728 24.7983 19.281C24.777 19.2905 24.754 19.2955 24.7308 19.2956C24.7069 19.2957 24.6833 19.2907 24.6615 19.281C24.6401 19.2732 24.6208 19.2608 24.605 19.2445C24.5889 19.2288 24.5759 19.2103 24.5667 19.1898C24.5494 19.1465 24.5494 19.0982 24.5667 19.0549C24.5751 19.034 24.5882 19.0152 24.605 19.0002C24.6207 18.9834 24.64 18.9703 24.6615 18.9619C24.6815 18.9495 24.7038 18.9414 24.7271 18.9382L24.7308 18.9491ZM24.7308 19.2573C24.7484 19.2576 24.7659 19.2538 24.7818 19.2464C24.7981 19.2394 24.813 19.2295 24.8256 19.2172C24.8378 19.2055 24.8472 19.1911 24.853 19.1752C24.8602 19.1585 24.8639 19.1405 24.8639 19.1223C24.8639 19.1042 24.8602 19.0862 24.853 19.0695C24.8472 19.0536 24.8378 19.0392 24.8256 19.0275C24.813 19.0152 24.7981 19.0053 24.7818 18.9983C24.7659 18.9909 24.7484 18.9871 24.7308 18.9874C24.7126 18.9871 24.6945 18.9909 24.6779 18.9983C24.6616 19.0053 24.6468 19.0152 24.6341 19.0275C24.6214 19.0391 24.6114 19.0535 24.605 19.0695C24.5929 19.1037 24.5929 19.141 24.605 19.1752C24.6114 19.1912 24.6214 19.2056 24.6341 19.2172C24.6468 19.2295 24.6616 19.2394 24.6779 19.2464C24.6941 19.2496 24.7109 19.2496 24.7271 19.2464L24.7308 19.2573ZM24.7308 19.0403C24.7484 19.0395 24.7657 19.0446 24.78 19.0549C24.7855 19.0596 24.7898 19.0655 24.7927 19.0721C24.7955 19.0788 24.7968 19.086 24.7964 19.0932C24.7964 19.0993 24.795 19.1054 24.7925 19.1111C24.79 19.1167 24.7864 19.1218 24.7818 19.126C24.7716 19.1347 24.7588 19.1398 24.7454 19.1406L24.7983 19.2026H24.7563L24.7071 19.1424H24.6925V19.2026H24.6578V19.0403H24.7308ZM24.6925 19.0713V19.1151H24.7308C24.7379 19.1172 24.7455 19.1172 24.7527 19.1151C24.755 19.113 24.7569 19.1105 24.7581 19.1076C24.7594 19.1048 24.7601 19.1017 24.7601 19.0986C24.7601 19.0955 24.7594 19.0925 24.7581 19.0896C24.7569 19.0868 24.755 19.0843 24.7527 19.0822C24.7455 19.0801 24.7379 19.0801 24.7308 19.0822L24.6925 19.0713Z" fill="black"/>
<path d="M20.2556 4.16329H14.5113V14.4867H20.2556V4.16329Z" fill="#7673C0"/>
<path d="M14.876 9.32593C14.8748 8.33154 15.1 7.34993 15.5344 6.45546C15.9688 5.56099 16.6012 4.77714 17.3835 4.16329C16.415 3.40216 15.2519 2.92886 14.0271 2.79748C12.8024 2.6661 11.5653 2.88194 10.4574 3.42034C9.34955 3.95874 8.41547 4.79798 7.76198 5.84213C7.10848 6.88628 6.76193 8.09323 6.76193 9.32502C6.76193 10.5568 7.10848 11.7638 7.76198 12.8079C8.41547 13.8521 9.34955 14.6913 10.4574 15.2297C11.5653 15.7681 12.8024 15.9839 14.0271 15.8526C15.2519 15.7212 16.415 15.2479 17.3835 14.4867C16.6012 13.8733 15.9689 13.0897 15.5344 12.1956C15.1 11.3014 14.8748 10.3201 14.876 9.32593Z" fill="#EB001B"/>
<path d="M27.3787 13.3944V13.1829H27.4644V13.1391H27.2474V13.1829H27.3313V13.3944H27.3787ZM27.7999 13.3944V13.1391H27.7324L27.6559 13.3215L27.5793 13.1391H27.5136V13.3944H27.561V13.2011L27.6321 13.367H27.6814L27.7525 13.2011V13.3944H27.7999Z" fill="#00A1DF"/>
<path d="M28.0041 9.32592C28.0038 10.5575 27.6571 11.7641 27.0036 12.808C26.3501 13.8519 25.4161 14.6909 24.3084 15.2291C23.2007 15.7674 21.9639 15.9832 20.7394 15.8519C19.5148 15.7206 18.3519 15.2476 17.3835 14.4867C18.1651 13.8724 18.797 13.0886 19.2316 12.1945C19.6661 11.3003 19.8919 10.3192 19.8919 9.32501C19.8919 8.33086 19.6661 7.34969 19.2316 6.45554C18.797 5.56138 18.1651 4.77759 17.3835 4.16329C18.352 3.40236 19.5151 2.92926 20.7398 2.79805C21.9645 2.66685 23.2015 2.88282 24.3092 3.4213C25.417 3.95979 26.351 4.79905 27.0043 5.84318C27.6577 6.88732 28.0042 8.09421 28.0041 9.32592Z" fill="#00A1DF"/>
</svg>
