<svg width="34" height="22" viewBox="0 0 34 22" fill="none" xmlns="http://www.w3.org/2000/svg">
<path d="M19.7224 5.23518H13.3058V16.7668H19.7224V5.23518Z" fill="#FF5F00"/>
<path d="M13.7131 11C13.7123 9.8896 13.964 8.79356 14.4492 7.7948C14.9345 6.79605 15.6406 5.92077 16.5141 5.23519C15.4323 4.38464 14.133 3.85563 12.7648 3.70863C11.3966 3.56163 10.0146 3.80257 8.77687 4.4039C7.53911 5.00524 6.49553 5.94271 5.76541 7.10914C5.03529 8.27557 4.6481 9.6239 4.6481 11C4.6481 12.3761 5.03529 13.7244 5.76541 14.8909C6.49553 16.0573 7.53911 16.9948 8.77687 17.5961C10.0146 18.1974 11.3966 18.4384 12.7648 18.2914C14.133 18.1444 15.4323 17.6154 16.5141 16.7648C15.6406 16.0792 14.9345 15.2039 14.4492 14.2052C13.964 13.2064 13.7123 12.1104 13.7131 11Z" fill="#EB001B"/>
<path d="M28.3798 11C28.3797 12.3761 27.9925 13.7243 27.2624 14.8907C26.5323 16.0571 25.4888 16.9946 24.2511 17.5959C23.0133 18.1972 21.6314 18.4382 20.2632 18.2912C18.895 18.1442 17.5958 17.6153 16.514 16.7648C17.3868 16.0786 18.0924 15.2032 18.5775 14.2046C19.0627 13.206 19.3147 12.1102 19.3147 11C19.3147 9.88977 19.0627 8.79404 18.5775 7.79543C18.0924 6.79682 17.3868 5.9214 16.514 5.23518C17.5958 4.3847 18.895 3.85575 20.2632 3.70878C21.6314 3.56181 23.0133 3.80277 24.2511 4.40409C25.4888 5.00542 26.5323 5.94286 27.2624 7.10926C27.9925 8.27565 28.3797 9.62394 28.3798 11Z" fill="#F79E1B"/>
<path d="M27.6851 15.5446V15.3083H27.7809V15.2594H27.5385V15.3083H27.6342V15.5446H27.6851ZM28.1557 15.5446V15.2594H28.0824L27.9968 15.4631L27.9113 15.2594H27.8359V15.5446H27.8889V15.3287L27.9683 15.5141H28.0233L28.1048 15.3287V15.5446H28.1557Z" fill="#F79E1B"/>
</svg>
