<svg width="34" height="22" viewBox="0 0 34 22" fill="none" xmlns="http://www.w3.org/2000/svg">
<path d="M16.7942 6.24691L14.4891 16.2906H11.6901L13.9952 6.24691H16.7942ZM28.3196 12.7506L29.7191 9.04596L30.5424 12.7506H28.3196ZM31.4479 16.2906H34L31.7772 6.24691H29.4722C28.9782 6.24691 28.4843 6.49391 28.2373 6.98785L24.1211 16.2906H27.0024L27.5787 14.8087H31.1186C31.2833 15.3026 31.3656 15.7966 31.4479 16.2906ZM24.2857 12.9976C24.2857 10.3632 20.4165 10.1985 20.4165 9.04596C20.4165 8.71667 20.7458 8.30506 21.6513 8.14042C22.5569 8.05809 23.5448 8.22272 24.368 8.63434L24.862 6.49393C24.0387 6.16463 23.2155 6.08232 22.3099 6C19.5932 6 17.6998 7.31717 17.6998 9.37528C17.6998 10.7748 19.017 11.6804 20.0872 12.092C21.1574 12.5037 21.4867 12.9153 21.4867 13.3269C21.4867 13.9855 20.6634 14.3147 19.8402 14.3147C18.8523 14.3147 17.8644 14.0677 17.0412 13.6561L16.5472 15.8789C17.5351 16.2082 18.523 16.4552 19.5932 16.3729C22.3923 16.4552 24.2857 15.138 24.2857 12.9976ZM12.9249 6.32932L8.47942 16.3729H5.59806L3.3753 8.38743C3.29298 8.05813 3.04601 7.72875 2.71671 7.48178C1.89346 7.07016 0.987894 6.8232 0 6.57623L0.082324 6.32932H4.77482C5.43341 6.32932 5.92736 6.7409 6.09201 7.31717L7.24455 13.1622L10.0436 6.32932H12.9249Z" fill="#001D74"/>
</svg>
