<svg width="34" height="22" viewBox="0 0 34 22" fill="none" xmlns="http://www.w3.org/2000/svg">
<g clip-path="url(#clip0)">
<path d="M12.9088 4.19375L8.45715 14.8129H5.55364L3.36274 6.33808C3.23047 5.81737 3.11496 5.62548 2.71069 5.40658C2.04931 5.04701 0.958521 4.71074 0 4.50208L0.064274 4.19375H4.74044C5.33567 4.19375 5.87129 4.58964 6.00729 5.27616L7.16515 11.4241L10.0221 4.19375H12.9098H12.9088ZM16.8361 4.19375L14.5641 14.8129H11.8162L14.0872 4.19375H16.8361ZM24.2881 11.3459C24.2993 8.54389 20.413 8.38833 20.4382 7.13638C20.4475 6.7554 20.8108 6.35019 21.6044 6.24679C22.5334 6.15907 23.4689 6.32351 24.3123 6.72279L24.7948 4.46575C23.9726 4.15937 23.1023 4.00166 22.2248 4C19.5095 4 17.599 5.4429 17.5831 7.50992C17.5654 9.03945 18.9478 9.89178 19.9873 10.3976C21.0586 10.9183 21.4172 11.2527 21.4125 11.7175C21.4051 12.4301 20.5574 12.7422 19.7694 12.7571C18.3879 12.7785 17.5868 12.3845 16.9478 12.0855L16.4495 14.4142C17.0922 14.7095 18.2762 14.9657 19.5039 14.9778C22.3906 14.9797 24.2797 13.5545 24.2881 11.3459ZM31.4607 14.8129H34L31.7802 4.19375H29.4356C29.1849 4.19126 28.9392 4.26417 28.7304 4.40303C28.5216 4.54189 28.3594 4.74029 28.2647 4.97249L24.1447 14.8129H27.0323L27.6043 13.2294H31.1291L31.4607 14.8129ZM28.3933 11.0506L29.8399 7.06279L30.6708 11.0506H28.3933ZM20.3516 17.736H19.2338V18.7756H20.4838V19.0904H18.8584V16.2027H20.4196V16.5148H19.2347V17.4258H20.3525L20.3516 17.736ZM21.0604 16.0518H21.433V19.0904H21.0604V16.0518ZM22.386 18.1216C22.3944 18.6302 22.7148 18.8398 23.0948 18.8398C23.2916 18.8463 23.4875 18.8098 23.6687 18.7327L23.7367 19.0028C23.5175 19.0952 23.2814 19.1403 23.0436 19.1351C22.4074 19.1351 22.0264 18.7113 22.0264 18.0872C22.0264 17.4631 22.3944 16.975 22.997 16.975C23.677 16.975 23.8522 17.5655 23.8522 17.9456C23.8539 18.0046 23.8495 18.0636 23.8391 18.1216H22.386ZM23.4889 17.8515C23.4935 17.6168 23.3901 17.2442 22.9672 17.2442C22.5825 17.2442 22.4195 17.5907 22.3897 17.8515H23.4889ZM25.8959 19.015C25.7086 19.0967 25.506 19.1377 25.3016 19.1351C24.6775 19.1351 24.2713 18.7113 24.2713 18.0788C24.2713 17.4463 24.7073 16.975 25.3826 16.975C25.5631 16.972 25.7418 17.0102 25.9052 17.0867L25.8195 17.3727C25.6841 17.3048 25.5341 17.2709 25.3826 17.274C24.9085 17.274 24.6514 17.6298 24.6514 18.0574C24.6514 18.5362 24.9597 18.8315 25.3705 18.8315C25.5312 18.8341 25.6905 18.8004 25.8363 18.7327L25.8959 19.015ZM26.9522 16.5222V17.0178H27.4906V17.3047H26.9522V18.4225C26.9522 18.6796 27.0249 18.8249 27.2317 18.8249C27.3055 18.8276 27.3794 18.8188 27.4506 18.7988L27.4673 19.0858C27.3597 19.1209 27.2471 19.1382 27.1339 19.137C27.0589 19.1404 26.984 19.128 26.9141 19.1007C26.8441 19.0735 26.7806 19.0319 26.7277 18.9786C26.6253 18.8631 26.5824 18.6796 26.5824 18.4356V17.3047H26.2685V17.0178H26.5899V16.6331L26.9522 16.5222ZM28.016 17.6633C28.016 17.4202 28.0113 17.2106 27.9992 17.0178H28.3281L28.3458 17.4286H28.3579C28.3941 17.3018 28.4694 17.1897 28.5731 17.1082C28.6768 17.0267 28.8036 16.9801 28.9354 16.975C28.9697 16.9757 29.0039 16.9785 29.0379 16.9833V17.3392C28.9955 17.3309 28.9524 17.3278 28.9093 17.3299C28.6448 17.3299 28.4566 17.5264 28.4054 17.8096C28.3965 17.8675 28.3921 17.9261 28.3923 17.9847V19.0904H28.0197L28.016 17.6633ZM31.3508 18.0359C31.3508 18.8016 30.8161 19.1351 30.3205 19.1351C29.7616 19.1351 29.3285 18.7243 29.3285 18.0704C29.3285 17.3811 29.7859 16.975 30.3532 16.975C30.953 16.975 31.3545 17.4072 31.3545 18.0359H31.3508ZM29.7132 18.0574C29.7132 18.511 29.9694 18.8529 30.3373 18.8529C30.7053 18.8529 30.9661 18.5147 30.9661 18.049C30.9661 17.6978 30.791 17.2572 30.3457 17.2572C29.9004 17.2572 29.7151 17.668 29.7151 18.0574H29.7132ZM31.9274 17.5776C31.9274 17.3597 31.9227 17.1892 31.9106 17.0187H32.2441L32.2655 17.3606H32.2739C32.3428 17.2408 32.4428 17.1418 32.5633 17.0741C32.6838 17.0063 32.8204 16.9724 32.9586 16.9759C33.2445 16.9759 33.6898 17.1473 33.6898 17.8571V19.0904H33.3172V17.8944C33.3172 17.5609 33.1933 17.2833 32.8375 17.2833C32.7237 17.2864 32.6139 17.3253 32.5234 17.3943C32.433 17.4633 32.3665 17.5591 32.3335 17.668C32.315 17.7245 32.3062 17.7837 32.3074 17.8431V19.0904H31.9348L31.9274 17.5776Z" fill="#2B2866"/>
</g>
<defs>
<clipPath id="clip0">
<rect y="4" width="34" height="15.1351" fill="white"/>
</clipPath>
</defs>
</svg>
